<?xml version="1.0" encoding="utf-8"?>
<!-- Generator: Adobe Illustrator 22.1.0, SVG Export Plug-In . SVG Version: 6.00 Build 0)  -->
<svg version="1.1" id="Layer_1" xmlns="http://www.w3.org/2000/svg" xmlns:xlink="http://www.w3.org/1999/xlink" x="0px" y="0px"
	 viewBox="0 0 841.9 595.3" style="enable-background:new 0 0 841.9 595.3;" xml:space="preserve">
<style type="text/css">
	.st0{fill:url(#SVGID_1_);}
	.st1{fill:#B68856;stroke:#000000;stroke-width:0.25;stroke-miterlimit:10;}
	.st2{fill:#D3A770;stroke:#000000;stroke-width:0.25;stroke-miterlimit:10;}
	.st3{fill:#E4B16A;stroke:#000000;stroke-width:0.25;stroke-miterlimit:10;}
	.st4{fill:#00E743;}
	.st5{fill:url(#SVGID_2_);}
</style>
<g>
	<radialGradient id="SVGID_1_" cx="493.9629" cy="257.5712" r="179.7636" gradientUnits="userSpaceOnUse">
		<stop  offset="0" style="stop-color:#C282FF"/>
		<stop  offset="1" style="stop-color:#1388FF"/>
	</radialGradient>
	<path class="st0" d="M477.2,322.3H373.9c-6.6,0-12-5.4-12-12V207.1c0-6.6,5.4-12,12-12h103.3c6.6,0,12,5.4,12,12v103.3
		C489.1,316.9,483.8,322.3,477.2,322.3z"/>
	<polygon class="st1" points="463.5,287.2 425.6,308.3 387.6,287.2 425.6,266.1 	"/>
	<polygon class="st2" points="387.6,287.2 425.6,266.1 425.6,228.2 387.6,249.3 	"/>
	<polygon class="st3" points="463.5,287.2 425.6,266.1 425.6,228.2 463.5,249.3 	"/>
	<polygon class="st3" points="463.5,249.3 425.6,228.2 440,220.8 477.9,241.9 	"/>
	<polygon class="st3" points="387.6,249.3 425.6,228.2 411.2,220.8 373.2,241.9 	"/>
	<path class="st4" d="M463.1,209.7c-1.7-1.1-3.9-0.6-5,1.1l-32.7,50.8l-18.5-25.4c-1.2-1.6-3.5-2-5.1-0.8c-1.6,1.2-2,3.5-0.8,5.1
		l21.7,29.7c1.2,1.6,3.5,2,5.1,0.8c0.4-0.3,0.7-0.6,0.9-1c0,0,0.1-0.1,0.1-0.1l35.5-55.2C465.3,213,464.8,210.7,463.1,209.7z"/>
	<polygon class="st3" points="425.6,308.3 387.6,287.2 387.6,249.3 425.6,270.4 	"/>
	<polygon class="st2" points="425.6,308.3 463.5,287.2 463.5,249.3 425.6,270.4 	"/>
	<polygon class="st3" points="411.2,277.8 373.2,256.7 387.6,249.3 425.6,270.4 	"/>
	<polygon class="st3" points="440,277.8 477.9,256.7 463.5,249.3 425.6,270.4 	"/>
	<g>
		<g>
			<linearGradient id="SVGID_2_" gradientUnits="userSpaceOnUse" x1="332.809" y1="346.274" x2="518.3062" y2="346.274">
				<stop  offset="0" style="stop-color:#00E743"/>
				<stop  offset="4.854760e-02" style="stop-color:#00E24C"/>
				<stop  offset="0.1292" style="stop-color:#00D466"/>
				<stop  offset="0.2271" style="stop-color:#00BE8D"/>
				<stop  offset="0.5652" style="stop-color:#009CFF"/>
				<stop  offset="0.8144" style="stop-color:#9D90EF"/>
			</linearGradient>
			<path class="st5" d="M354.6,346.2c-0.7-0.7-1.5-1.2-2.4-1.6c-0.9-0.4-1.9-0.6-2.9-0.6h-9c-1.1,0-1.9-0.4-2.6-1.1
				c-0.6-0.7-1-1.6-1-2.5c0-1,0.3-1.8,1-2.5c0.7-0.7,1.5-1,2.5-1h9.3c1,0,1.8,0.3,2.4,0.9c0.6,0.6,1,1.3,1.1,2.2
				c0,0.3,0.2,0.5,0.5,0.5h2.1c0.4,0,0.5-0.2,0.5-0.5c0-0.9-0.2-1.8-0.6-2.5c-0.4-0.8-1-1.5-1.6-2c-0.7-0.6-1.4-1-2.3-1.3
				c-0.8-0.3-1.7-0.5-2.5-0.5h-8.7c-1,0-1.9,0.2-2.7,0.6c-0.8,0.4-1.6,0.9-2.2,1.5c-0.6,0.6-1.1,1.4-1.5,2.2
				c-0.4,0.9-0.5,1.8-0.5,2.7c0,1,0.2,1.9,0.5,2.8c0.4,0.9,0.9,1.6,1.5,2.3c0.6,0.6,1.4,1.1,2.2,1.5c0.8,0.4,1.8,0.6,2.7,0.6h8.9
				c1.1,0,2,0.4,2.7,1.1c0.7,0.8,1.1,1.6,1.1,2.7c0,1-0.4,2-1.1,2.7c-0.7,0.8-1.6,1.2-2.7,1.2h-9.4c-1.1,0-2-0.3-2.6-1
				c-0.7-0.7-1.1-1.5-1.2-2.4c0-0.3-0.2-0.5-0.5-0.5h-2.4c-0.4,0-0.5,0.2-0.5,0.5c0,0.9,0.2,1.8,0.7,2.7c0.4,0.8,1,1.6,1.7,2.2
				c0.7,0.6,1.5,1.1,2.4,1.4c0.9,0.3,1.7,0.5,2.6,0.5h9.2c1,0,2-0.2,2.9-0.6c0.9-0.4,1.7-0.9,2.4-1.6c0.7-0.7,1.2-1.4,1.6-2.3
				c0.4-0.9,0.6-1.9,0.6-2.9c0-1-0.2-2-0.6-2.9C355.8,347.7,355.3,346.9,354.6,346.2z M375.5,344c-0.3,0-0.5,0.1-0.6,0.2
				c-0.2,0.2-0.2,0.4-0.2,0.6v1.5c0,0.3,0.1,0.5,0.2,0.6c0.2,0.2,0.4,0.2,0.6,0.2h12.3c0.2,0,0.4-0.1,0.6-0.2
				c0.2-0.2,0.3-0.4,0.3-0.6v-1.5c0-0.3-0.1-0.5-0.3-0.6c-0.2-0.2-0.4-0.2-0.6-0.2H375.5z M389.3,355.5h-17.4V337h17.1
				c0.3,0,0.5-0.1,0.7-0.3c0.2-0.2,0.3-0.4,0.3-0.6v-1.6c0-0.3-0.1-0.5-0.3-0.7s-0.4-0.3-0.7-0.3h-20c-0.2,0-0.4,0.1-0.6,0.3
				c-0.2,0.2-0.3,0.4-0.3,0.7V358c0,0.2,0.1,0.4,0.3,0.6c0.2,0.2,0.4,0.3,0.6,0.3h20.3c0.2,0,0.4-0.1,0.6-0.3
				c0.2-0.2,0.3-0.4,0.3-0.6v-1.6c0-0.3-0.1-0.5-0.3-0.7C389.8,355.6,389.5,355.5,389.3,355.5z M416.7,348.8c0.8-0.2,1.6-0.5,2.3-1
				c0.7-0.5,1.3-1,1.9-1.7c0.5-0.7,0.9-1.4,1.2-2.2c0.3-0.8,0.4-1.7,0.4-2.6c0-1.1-0.2-2.1-0.6-3c-0.4-0.9-1-1.7-1.7-2.4
				c-0.7-0.7-1.5-1.3-2.4-1.7c-0.9-0.4-1.9-0.6-3-0.6h-14.7c-0.3,0-0.5,0.1-0.6,0.3c-0.2,0.2-0.2,0.4-0.2,0.7V358
				c0,0.3,0.1,0.5,0.2,0.6c0.2,0.2,0.4,0.2,0.6,0.2h2c0.3,0,0.5-0.1,0.7-0.2c0.2-0.2,0.3-0.4,0.3-0.6v-21h11.3
				c1.2,0,2.3,0.4,3.2,1.3c0.9,0.9,1.3,1.9,1.3,3.1c0,1.2-0.4,2.3-1.3,3.1c-0.9,0.8-2,1.3-3.2,1.3h-7.6c-0.3,0-0.5,0.1-0.6,0.2
				s-0.2,0.4-0.2,0.6v1.5c0,0.3,0.1,0.5,0.2,0.6s0.4,0.2,0.6,0.2h5.7l6.7,9.1c0.2,0.2,0.4,0.4,0.6,0.6c0.2,0.1,0.5,0.2,0.7,0.2h3.1
				c0.2,0,0.3-0.1,0.3-0.2c0-0.1,0-0.2-0.1-0.3L416.7,348.8z M454.6,333.6H452c-0.3,0-0.5,0.1-0.6,0.4l-8.1,17.2c0,0.1,0,0.1,0,0.2
				c0,0.1,0,0.1,0,0.1l1.4,3c0.1,0.2,0.2,0.2,0.3,0.2c0.1,0,0.2-0.1,0.3-0.2l9.6-20.2c0.1-0.2,0.1-0.3,0.1-0.3
				C455.1,333.8,454.9,333.6,454.6,333.6z M432.1,334c-0.1-0.3-0.3-0.4-0.6-0.4h-2.9c-0.3,0-0.5,0.1-0.5,0.4c0,0,0,0.1,0.1,0.3
				l11.8,24.1c0.1,0.3,0.3,0.4,0.6,0.4h2.6c0.4,0,0.5-0.1,0.5-0.4c0-0.1,0-0.2-0.1-0.3L432.1,334z M470,344c-0.3,0-0.5,0.1-0.6,0.2
				c-0.2,0.2-0.2,0.4-0.2,0.6v1.5c0,0.3,0.1,0.5,0.2,0.6c0.2,0.2,0.4,0.2,0.6,0.2h12.3c0.2,0,0.4-0.1,0.6-0.2
				c0.2-0.2,0.3-0.4,0.3-0.6v-1.5c0-0.3-0.1-0.5-0.3-0.6c-0.2-0.2-0.4-0.2-0.6-0.2H470z M483.8,355.5h-17.4V337h17.1
				c0.3,0,0.5-0.1,0.7-0.3c0.2-0.2,0.3-0.4,0.3-0.6v-1.6c0-0.3-0.1-0.5-0.3-0.7s-0.4-0.3-0.7-0.3h-20c-0.2,0-0.4,0.1-0.6,0.3
				c-0.2,0.2-0.3,0.4-0.3,0.7V358c0,0.2,0.1,0.4,0.3,0.6c0.2,0.2,0.4,0.3,0.6,0.3h20.3c0.2,0,0.4-0.1,0.6-0.3
				c0.2-0.2,0.3-0.4,0.3-0.6v-1.6c0-0.3-0.1-0.5-0.3-0.7C484.3,355.6,484.1,355.5,483.8,355.5z M518.2,358.3l-7-9.5
				c0.8-0.2,1.6-0.5,2.3-1c0.7-0.5,1.3-1,1.9-1.7c0.5-0.7,0.9-1.4,1.2-2.2c0.3-0.8,0.4-1.7,0.4-2.6c0-1.1-0.2-2.1-0.6-3
				c-0.4-0.9-1-1.7-1.7-2.4c-0.7-0.7-1.5-1.3-2.4-1.7c-0.9-0.4-1.9-0.6-3-0.6h-14.7c-0.3,0-0.5,0.1-0.6,0.3
				c-0.2,0.2-0.2,0.4-0.2,0.7V358c0,0.3,0.1,0.5,0.2,0.6c0.2,0.2,0.4,0.2,0.6,0.2h2c0.3,0,0.5-0.1,0.7-0.2c0.2-0.2,0.3-0.4,0.3-0.6
				v-21h11.3c1.2,0,2.3,0.4,3.2,1.3c0.9,0.9,1.3,1.9,1.3,3.1c0,1.2-0.4,2.3-1.3,3.1c-0.9,0.8-2,1.3-3.2,1.3h-7.6
				c-0.3,0-0.5,0.1-0.6,0.2s-0.2,0.4-0.2,0.6v1.5c0,0.3,0.1,0.5,0.2,0.6s0.4,0.2,0.6,0.2h5.7l6.7,9.1c0.2,0.2,0.4,0.4,0.6,0.6
				c0.2,0.1,0.5,0.2,0.7,0.2h3.1c0.2,0,0.3-0.1,0.3-0.2C518.3,358.6,518.3,358.4,518.2,358.3z"/>
		</g>
	</g>
</g>
</svg>
