<svg xmlns="http://www.w3.org/2000/svg" width="64" height="64" viewBox="0 0 64 64" version="1.1">
	<path d="M 9.655 1.829 C 8.243 3.389, 8 6.318, 8 21.755 C 8 37.903, 8.181 39.888, 9.679 40.177 C 11.250 40.479, 11.250 40.607, 9.679 42.179 C 8.373 43.484, 8 45.728, 8 52.274 C 8 64.430, 7.131 64, 31.674 64 C 55.893 64, 55 64.455, 55 52.100 C 55 45.717, 54.621 43.478, 53.321 42.179 C 51.750 40.607, 51.750 40.479, 53.321 40.177 C 54.820 39.888, 55 37.892, 55 21.582 C 55 5.150, 54.816 3.143, 53.171 1.655 C 51.598 0.231, 48.548 -0, 31.326 -0 C 13.205 -0, 11.153 0.173, 9.655 1.829 M 24.030 4.113 C 16.073 7.288, 10.864 14.894, 10.787 23.448 C 10.728 29.973, 13.086 35.062, 18.193 39.433 C 23.643 44.098, 25.222 44.282, 29.949 40.806 C 33.705 38.044, 35.865 38.208, 32.500 41 C 28.190 44.577, 35.394 45.160, 41.458 41.725 C 47.460 38.326, 51.287 32.215, 51.774 25.255 C 52.115 20.386, 51.735 18.659, 49.304 14.034 C 46.965 9.584, 45.442 8.052, 41.101 5.784 C 35.479 2.847, 28.832 2.196, 24.030 4.113 M 26.440 20.451 C 24.349 23.643, 24.856 25.808, 28.296 28.373 C 30.876 30.298, 31.301 30.342, 33.796 28.948 C 36.819 27.259, 38.022 21.936, 35.946 19.435 C 33.946 17.025, 28.289 17.630, 26.440 20.451 M 27.452 21.433 C 24.508 25.926, 29.482 30.452, 33.935 27.333 C 36.217 25.734, 36.662 22.062, 34.800 20.200 C 32.807 18.207, 29.165 18.819, 27.452 21.433 M 13.688 46.646 C 10.367 49.966, 17.311 59.437, 22.620 58.828 C 24.384 58.626, 25.610 57.828, 25.815 56.750 C 26.079 55.357, 25.442 55, 22.696 55 C 18.725 55, 17.315 53.695, 16.838 49.577 C 16.504 46.689, 15.022 45.311, 13.688 46.646 M 40.507 46.754 C 34.187 47.229, 32 49.145, 32 54.205 L 32 58.100 37.648 57.800 C 42.340 57.551, 43.600 57.077, 45.088 55 C 47.114 52.175, 48.017 46.751, 46.500 46.527 C 45.950 46.446, 43.253 46.548, 40.507 46.754 M 39 50.083 C 39 52.520, 41.337 52.176, 41.823 49.667 C 42.015 48.680, 41.505 48, 40.573 48 C 39.646 48, 39 48.855, 39 50.083 M 18.364 50.493 C 18.018 51.396, 18.214 52.614, 18.800 53.200 C 20.324 54.724, 23.210 53.331, 22.812 51.265 C 22.369 48.963, 19.165 48.407, 18.364 50.493" stroke="none" fill="black" fill-rule="evenodd"/>
</svg>